<?xml version="1.0" encoding="UTF-8"?>
<svg version="1.1" xmlns="http://www.w3.org/2000/svg" width="225" height="225">
<path d="M0 0 C1.65515625 0.91845703 1.65515625 0.91845703 3.34375 1.85546875 C3.94832031 2.17209473 4.55289063 2.4887207 5.17578125 2.81494141 C8.40119199 4.53365795 11.4127511 6.40719689 14.375 8.546875 C17.81731025 10.95678259 20.80474408 12.77176376 24.84375 14.04296875 C30.8839032 12.70820275 35.65206129 9.34946255 40.59375 5.77832031 C44.55216473 2.93100079 48.16865467 0.52978518 52.84375 -0.95703125 C57.5707933 0.02210315 60.98576665 2.21758566 64.89453125 4.88525391 C67.03318194 6.15547955 69.11513214 6.91363491 71.46875 7.7109375 C76.45600562 9.60381245 80.90952725 11.38809106 83.84375 16.04296875 C84.84100803 21.70838906 84.5029752 27.37319389 84.25482178 33.09255981 C83.7089672 41.05259999 83.7089672 41.05259999 86.32373047 48.3046875 C90.2527043 51.73775236 94.83213968 53.58353046 99.72216797 55.26953125 C102.65968015 56.34042177 105.20360016 57.88278719 107.84375 59.54296875 C108.9884375 60.208125 108.9884375 60.208125 110.15625 60.88671875 C111.84375 62.04296875 111.84375 62.04296875 112.84375 64.04296875 C113.05562227 68.43210767 113.02954574 72.82506781 113.02905273 77.21875 C113.03123459 79.40254332 113.04938136 81.58582765 113.06835938 83.76953125 C113.07129436 85.16015452 113.07327845 86.5507802 113.07421875 87.94140625 C113.07832764 89.20645996 113.08243652 90.47151367 113.08666992 91.77490234 C112.73276943 96.53601995 112.73276943 96.53601995 110.84375 99.04296875 C108.35351562 100.78222656 108.35351562 100.78222656 105.25 102.49609375 C104.13753906 103.11484375 103.02507812 103.73359375 101.87890625 104.37109375 C101.29898926 104.68626953 100.71907227 105.00144531 100.12158203 105.32617188 C98.3438249 106.29292802 96.57575961 107.27575902 94.80859375 108.26171875 C86.14006696 113.04296875 86.14006696 113.04296875 83.84375 113.04296875 C83.94848633 113.94950195 84.05322266 114.85603516 84.16113281 115.79003906 C86.68757994 140.88181644 86.68757994 140.88181644 82.05810547 147.65576172 C77.51961018 151.65208608 72.25596485 154.02192204 66.58227539 155.99951172 C63.77819046 156.98635855 63.77819046 156.98635855 61.11889648 158.60595703 C54.3947714 162.41591458 54.3947714 162.41591458 50.01196289 161.36206055 C47.02381536 159.94327404 44.309465 158.33735293 41.53125 156.54296875 C40.58185547 155.97320312 39.63246094 155.4034375 38.65429688 154.81640625 C36.88086382 153.7520989 35.11782013 152.6701185 33.36987305 151.56445312 C32.53625244 151.06236328 31.70263184 150.56027344 30.84375 150.04296875 C29.87308594 149.42776367 28.90242188 148.81255859 27.90234375 148.17871094 C24.88207576 146.70034729 24.88207576 146.70034729 21.9152832 147.97167969 C20.91843506 148.56754883 19.92158691 149.16341797 18.89453125 149.77734375 C17.79947266 150.41414062 16.70441406 151.0509375 15.57617188 151.70703125 C14.43571425 152.40155014 13.29574496 153.09687153 12.15625 153.79296875 C11.0058979 154.47492273 9.85421485 155.15463691 8.70117188 155.83203125 C6.58839675 157.07498697 4.48196687 158.32883428 2.3840332 159.59667969 C-0.15625 161.04296875 -0.15625 161.04296875 -3.15625 162.04296875 C-5.3894043 161.13427734 -5.3894043 161.13427734 -7.98046875 159.69140625 C-9.40069336 158.90830078 -9.40069336 158.90830078 -10.84960938 158.109375 C-11.83767578 157.55121094 -12.82574219 156.99304688 -13.84375 156.41796875 C-14.81248047 155.88300781 -15.78121094 155.34804687 -16.77929688 154.796875 C-18.69419636 153.73261038 -20.59617548 152.64473482 -22.48388672 151.53295898 C-25.06484998 150.00956975 -25.06484998 150.00956975 -27.62939453 149.10180664 C-30.19314346 148.01032364 -31.48595633 147.2930219 -33.15625 145.04296875 C-34.15035778 139.57557298 -33.90911316 134.25946477 -33.65625 128.73046875 C-33.61609872 127.21168168 -33.57960074 125.69279334 -33.546875 124.17382812 C-33.45893966 120.46143064 -33.32103459 116.7528402 -33.15625 113.04296875 C-34.03563232 112.77347412 -34.91501465 112.50397949 -35.82104492 112.22631836 C-41.08651318 110.35810046 -45.67713629 107.44689879 -50.46875 104.60546875 C-51.98952148 103.72665039 -51.98952148 103.72665039 -53.54101562 102.83007812 C-54.50330078 102.26224609 -55.46558594 101.69441406 -56.45703125 101.109375 C-57.33528564 100.59318604 -58.21354004 100.07699707 -59.1184082 99.54516602 C-61.15625 98.04296875 -61.15625 98.04296875 -62.15625 95.04296875 C-62.4064563 90.62863937 -62.42697146 86.21222089 -62.45141602 81.79174805 C-62.46295859 80.33592019 -62.48344667 78.8801354 -62.51293945 77.42456055 C-62.55559461 75.31920674 -62.57177823 73.21510708 -62.58203125 71.109375 C-62.59661377 69.85068604 -62.61119629 68.59199707 -62.6262207 67.29516602 C-62.06656253 63.42233143 -61.21705441 62.39094642 -58.15625 60.04296875 C-56.12915039 58.71850586 -56.12915039 58.71850586 -54.00390625 57.5703125 C-53.22724609 57.14556641 -52.45058594 56.72082031 -51.65039062 56.28320312 C-50.44672852 55.63834961 -50.44672852 55.63834961 -49.21875 54.98046875 C-47.62592462 54.11527789 -46.03346657 53.24941037 -44.44140625 52.3828125 C-43.69648926 51.98046387 -42.95157227 51.57811523 -42.18408203 51.16357422 C-40.50117686 50.23357967 -38.85276349 49.241489 -37.21484375 48.234375 C-35.15625 47.04296875 -35.15625 47.04296875 -33.15625 47.04296875 C-33.28193359 46.17720215 -33.40761719 45.31143555 -33.53710938 44.41943359 C-34.72412273 35.0197403 -35.92135227 25.23808896 -33.15625 16.04296875 C-27.80943244 9.42937383 -19.82566354 6.16202592 -12.04052734 3.17675781 C-9.05356847 2.06815611 -9.05356847 2.06815611 -5.98876953 0.34155273 C-3.15625 -0.95703125 -3.15625 -0.95703125 0 0 Z M-10.84375 14.41796875 C-11.54564453 14.83046875 -12.24753906 15.24296875 -12.97070312 15.66796875 C-14.73720301 16.73233214 -16.45194886 17.88161226 -18.15625 19.04296875 C-18.15625 19.70296875 -18.15625 20.36296875 -18.15625 21.04296875 C-15.81173479 22.74915539 -13.49729195 24.28286441 -11.03125 25.79296875 C-10.36609375 26.22996094 -9.7009375 26.66695312 -9.015625 27.1171875 C-4.83850445 29.68366547 -4.83850445 29.68366547 -0.03125 29.53515625 C2.99936721 27.96220003 5.8665103 26.29627294 8.71875 24.41796875 C9.68554688 23.78632813 10.65234375 23.1546875 11.6484375 22.50390625 C12.37289062 22.02179687 13.09734375 21.5396875 13.84375 21.04296875 C12.50418831 17.02428368 9.93410261 15.92049029 6.46875 13.85546875 C5.87835938 13.48744141 5.28796875 13.11941406 4.6796875 12.74023438 C-2.03565754 8.66414093 -4.72386986 10.69232743 -10.84375 14.41796875 Z M43.15625 14.41796875 C42.45435547 14.83046875 41.75246094 15.24296875 41.02929688 15.66796875 C39.26279699 16.73233214 37.54805114 17.88161226 35.84375 19.04296875 C35.84375 19.70296875 35.84375 20.36296875 35.84375 21.04296875 C38.11271632 22.35878938 40.38378187 23.67072111 42.65625 24.98046875 C43.29884766 25.35365234 43.94144531 25.72683594 44.60351562 26.11132812 C47.32691424 27.6776351 49.85483122 29.04666249 52.84375 30.04296875 C54.63523501 29.35459147 54.63523501 29.35459147 56.41796875 28.171875 C57.08505859 27.76259766 57.75214844 27.35332031 58.43945312 26.93164062 C59.47489258 26.27518555 59.47489258 26.27518555 60.53125 25.60546875 C61.23314453 25.17169922 61.93503906 24.73792969 62.65820312 24.29101562 C64.39240372 23.21746288 66.11883744 22.13138221 67.84375 21.04296875 C66.50418831 17.02428368 63.93410261 15.92049029 60.46875 13.85546875 C59.87835938 13.48744141 59.28796875 13.11941406 58.6796875 12.74023438 C51.96434246 8.66414093 49.27613014 10.69232743 43.15625 14.41796875 Z M18.078125 29.44921875 C17.27600586 29.89587891 16.47388672 30.34253906 15.64746094 30.80273438 C14.63973633 31.37701172 13.63201172 31.95128906 12.59375 32.54296875 C9.37625 34.35796875 6.15875 36.17296875 2.84375 38.04296875 C2.84375 48.27296875 2.84375 58.50296875 2.84375 69.04296875 C0.86375 69.70296875 -1.11625 70.36296875 -3.15625 71.04296875 C-4.90807621 71.93511158 -6.63554369 72.87663299 -8.3359375 73.86328125 C-9.2640625 74.39824219 -10.1921875 74.93320313 -11.1484375 75.484375 C-12.57542969 76.31775391 -12.57542969 76.31775391 -14.03125 77.16796875 C-15.00578125 77.73128906 -15.9803125 78.29460937 -16.984375 78.875 C-19.37786962 80.25947238 -21.7683338 81.64890416 -24.15625 83.04296875 C-24.41885373 86.7499458 -24.57781838 90.45453233 -24.71875 94.16796875 C-24.79416016 95.2146875 -24.86957031 96.26140625 -24.94726562 97.33984375 C-25.03632466 100.46680527 -24.98011184 103.02120825 -24.15625 106.04296875 C-21.52766971 108.81458664 -18.53014639 110.3200985 -15.15625 112.04296875 C-14.05988586 112.85522781 -12.97806036 113.68781453 -11.91796875 114.546875 C-6.93531464 117.89855409 -6.93531464 117.89855409 -1.15625 119.04296875 C7.15831551 116.63381853 14.66342084 111.13460787 21.55859375 106.03515625 C23.84375 105.04296875 23.84375 105.04296875 26.71875 105.609375 C30.21497837 107.21326977 33.5417457 109.01584829 36.84375 110.98046875 C39.16950254 112.34900654 41.50302851 113.6997138 43.84375 115.04296875 C44.854375 115.64238281 45.865 116.24179688 46.90625 116.859375 C50.6050032 118.3496971 52.03724508 118.23308038 55.84375 117.04296875 C59.05966424 115.50628246 62.13633351 113.76748373 65.21875 111.98046875 C66.05019531 111.50802734 66.88164062 111.03558594 67.73828125 110.54882812 C69.7781849 109.38819329 71.81297018 108.21947102 73.84375 107.04296875 C75.43729087 99.1497931 76.79007594 90.72887675 73.84375 83.04296875 C67.3676917 76.06543709 57.61572328 71.50760098 48.84375 68.04296875 C48.18375 68.04296875 47.52375 68.04296875 46.84375 68.04296875 C46.84375 58.14296875 46.84375 48.24296875 46.84375 38.04296875 C43.62625 36.22796875 40.40875 34.41296875 37.09375 32.54296875 C36.08602539 31.96869141 35.07830078 31.39441406 34.04003906 30.80273438 C33.23791992 30.35607422 32.43580078 29.90941406 31.609375 29.44921875 C30.79243164 28.98837891 29.97548828 28.52753906 29.13378906 28.05273438 C24.7352041 26.11323039 21.99603357 27.23911648 18.078125 29.44921875 Z M-23.15625 29.04296875 C-24.30607602 33.13300734 -24.26719256 37.07473926 -24.21875 41.29296875 C-24.21423828 42.03804687 -24.20972656 42.783125 -24.20507812 43.55078125 C-24.19334246 45.38154515 -24.1754085 47.21226748 -24.15625 49.04296875 C-21.7226933 50.38396925 -19.28489699 51.71591731 -16.84375 53.04296875 C-16.15345703 53.42453125 -15.46316406 53.80609375 -14.75195312 54.19921875 C-10.68947495 56.44296567 -10.68947495 56.44296567 -6.15625 57.04296875 C-6.15625 50.77296875 -6.15625 44.50296875 -6.15625 38.04296875 C-8.775625 36.55796875 -11.395 35.07296875 -14.09375 33.54296875 C-14.9199585 33.07310547 -15.74616699 32.60324219 -16.59741211 32.11914062 C-17.24460205 31.75369141 -17.89179199 31.38824219 -18.55859375 31.01171875 C-19.22366943 30.63466797 -19.88874512 30.25761719 -20.57397461 29.86914062 C-22.006493 28.96582768 -22.006493 28.96582768 -23.15625 29.04296875 Z M64.84375 33.23046875 C63.71839844 33.81151367 63.71839844 33.81151367 62.5703125 34.40429688 C58.37695412 36.58336251 58.37695412 36.58336251 55.81640625 40.35546875 C55.85216302 43.86984818 55.98976444 47.35429159 56.28125 50.85546875 C56.33345703 51.54833984 56.38566406 52.24121094 56.43945312 52.95507812 C56.56814819 54.65151312 56.70511184 56.34731738 56.84375 58.04296875 C59.49079909 56.73287343 62.1364156 55.42002111 64.78125 54.10546875 C65.53599609 53.73228516 66.29074219 53.35910156 67.06835938 52.97460938 C68.14633789 52.43803711 68.14633789 52.43803711 69.24609375 51.890625 C69.91116943 51.56070557 70.57624512 51.23078613 71.26147461 50.89086914 C72.83994363 50.14319867 72.83994363 50.14319867 73.84375 49.04296875 C73.93044432 47.55425015 73.95078494 46.06152375 73.94140625 44.5703125 C73.93657227 43.22163086 73.93657227 43.22163086 73.93164062 41.84570312 C73.92326172 40.90017578 73.91488281 39.95464844 73.90625 38.98046875 C73.90173828 38.03107422 73.89722656 37.08167969 73.89257812 36.10351562 C73.8807511 33.7499381 73.86427025 31.39648398 73.84375 29.04296875 C70.95931928 29.04296875 67.41407219 31.83710681 64.84375 33.23046875 Z M-37.28125 59.35546875 C-37.93996094 59.75958984 -38.59867188 60.16371094 -39.27734375 60.58007812 C-40.95964846 61.65111062 -42.56530197 62.84041143 -44.15625 64.04296875 C-44.15625 65.03296875 -44.15625 66.02296875 -44.15625 67.04296875 C-41.91445623 68.41262083 -39.66452662 69.76349683 -37.40625 71.10546875 C-36.77203125 71.49541016 -36.1378125 71.88535156 -35.484375 72.28710938 C-32.05584583 74.46496206 -32.05584583 74.46496206 -28.15625 74.76171875 C-24.86045294 73.57729168 -21.9137208 71.75010858 -18.90625 69.98046875 C-18.2565625 69.60341797 -17.606875 69.22636719 -16.9375 68.83789062 C-15.34119909 67.9106276 -13.74837471 66.97738419 -12.15625 66.04296875 C-14.87201573 62.95731378 -18.24280828 60.97009556 -21.71875 58.85546875 C-22.30849609 58.48744141 -22.89824219 58.11941406 -23.50585938 57.74023438 C-29.64914867 53.97318895 -31.54302409 55.69095814 -37.28125 59.35546875 Z M70.71875 59.35546875 C70.06003906 59.75958984 69.40132812 60.16371094 68.72265625 60.58007812 C67.04035154 61.65111062 65.43469803 62.84041143 63.84375 64.04296875 C63.84375 65.03296875 63.84375 66.02296875 63.84375 67.04296875 C66.08554377 68.41262083 68.33547338 69.76349683 70.59375 71.10546875 C71.22796875 71.49541016 71.8621875 71.88535156 72.515625 72.28710938 C75.94415417 74.46496206 75.94415417 74.46496206 79.84375 74.76171875 C83.13954706 73.57729168 86.0862792 71.75010858 89.09375 69.98046875 C89.7434375 69.60341797 90.393125 69.22636719 91.0625 68.83789062 C92.65880091 67.9106276 94.25162529 66.97738419 95.84375 66.04296875 C93.12798427 62.95731378 89.75719172 60.97009556 86.28125 58.85546875 C85.69150391 58.48744141 85.10175781 58.11941406 84.49414062 57.74023438 C78.35085133 53.97318895 76.45697591 55.69095814 70.71875 59.35546875 Z M-51.15625 74.04296875 C-51.48625 80.31296875 -51.81625 86.58296875 -52.15625 93.04296875 C-45.50215767 97.22136957 -45.50215767 97.22136957 -38.65625 100.85546875 C-36.42875 101.93828125 -36.42875 101.93828125 -34.15625 103.04296875 C-34.15625 96.44296875 -34.15625 89.84296875 -34.15625 83.04296875 C-36.775625 81.55796875 -39.395 80.07296875 -42.09375 78.54296875 C-42.9199585 78.07310547 -43.74616699 77.60324219 -44.59741211 77.11914062 C-45.24460205 76.75369141 -45.89179199 76.38824219 -46.55859375 76.01171875 C-47.22366943 75.63466797 -47.88874512 75.25761719 -48.57397461 74.86914062 C-50.006493 73.96582768 -50.006493 73.96582768 -51.15625 74.04296875 Z M96.1484375 76.01171875 C95.43300781 76.41777344 94.71757812 76.82382813 93.98046875 77.2421875 C93.23410156 77.67144531 92.48773438 78.10070312 91.71875 78.54296875 C90.96464844 78.97222656 90.21054688 79.40148437 89.43359375 79.84375 C87.56813952 80.90635051 85.70566125 81.97417232 83.84375 83.04296875 C83.81677863 85.64720467 83.79692511 88.25116119 83.78125 90.85546875 C83.77287109 91.59345703 83.76449219 92.33144531 83.75585938 93.09179688 C83.74115172 96.34218943 83.80843298 98.9370177 84.84375 102.04296875 C91.03336353 100.37010023 96.28580949 97.16083782 101.84375 94.04296875 C101.84375 87.44296875 101.84375 80.84296875 101.84375 74.04296875 C99.36703855 74.04296875 98.29241316 74.7865898 96.1484375 76.01171875 Z M-24.15625 119.04296875 C-25.21244003 123.32594406 -25.27327092 127.47282521 -25.21875 131.85546875 C-25.21423828 132.54833984 -25.20972656 133.24121094 -25.20507812 133.95507812 C-25.19338156 135.65107943 -25.17544924 137.34703578 -25.15625 139.04296875 C-22.34551431 140.54629253 -19.53237794 142.0450661 -16.71875 143.54296875 C-15.91630859 143.97222656 -15.11386719 144.40148437 -14.28710938 144.84375 C-13.52333984 145.24980469 -12.75957031 145.65585938 -11.97265625 146.07421875 C-11.26568604 146.45126953 -10.55871582 146.82832031 -9.83032227 147.21679688 C-8.31793224 148.11672739 -8.31793224 148.11672739 -7.15625 148.04296875 C-7.15625 141.44296875 -7.15625 134.84296875 -7.15625 128.04296875 C-9.775625 126.55796875 -12.395 125.07296875 -15.09375 123.54296875 C-15.9199585 123.07310547 -16.74616699 122.60324219 -17.59741211 122.11914062 C-18.24460205 121.75369141 -18.89179199 121.38824219 -19.55859375 121.01171875 C-20.22366943 120.63466797 -20.88874512 120.25761719 -21.57397461 119.86914062 C-23.006493 118.96582768 -23.006493 118.96582768 -24.15625 119.04296875 Z M14.1484375 121.01171875 C13.18139893 121.55989258 13.18139893 121.55989258 12.19482422 122.11914062 C11.37771973 122.58900391 10.56061523 123.05886719 9.71875 123.54296875 C7.12 125.02796875 4.52125 126.51296875 1.84375 128.04296875 C2.17375 134.31296875 2.50375 140.58296875 2.84375 147.04296875 C7.30847722 145.55472634 10.28940476 144.36864176 14.15625 141.98046875 C15.01863281 141.45324219 15.88101563 140.92601562 16.76953125 140.3828125 C18.75072585 139.20609055 18.75072585 139.20609055 19.84375 138.04296875 C19.93026611 136.62726752 19.95079904 135.20737375 19.94140625 133.7890625 C19.93657227 132.50805664 19.93657227 132.50805664 19.93164062 131.20117188 C19.92326172 130.30333984 19.91488281 129.40550781 19.90625 128.48046875 C19.90173828 127.57876953 19.89722656 126.67707031 19.89257812 125.74804688 C19.88075225 123.51295561 19.8642722 121.27799438 19.84375 119.04296875 C17.36703855 119.04296875 16.29241316 119.7865898 14.1484375 121.01171875 Z M29.84375 119.04296875 C29.84375 125.64296875 29.84375 132.24296875 29.84375 139.04296875 C35.12375 142.01296875 40.40375 144.98296875 45.84375 148.04296875 C48.0103097 146.2878711 48.0103097 146.2878711 48.07080078 144.16357422 C48.06032715 143.41994629 48.04985352 142.67631836 48.0390625 141.91015625 C48.03261719 141.10449219 48.02617187 140.29882812 48.01953125 139.46875 C48.00277344 138.62699219 47.98601562 137.78523438 47.96875 136.91796875 C47.95972656 136.06847656 47.95070313 135.21898437 47.94140625 134.34375 C47.91780647 132.24336991 47.88193483 130.14313431 47.84375 128.04296875 C45.03301431 126.53964497 42.21987794 125.0408714 39.40625 123.54296875 C38.60380859 123.11371094 37.80136719 122.68445313 36.97460938 122.2421875 C36.21083984 121.83613281 35.44707031 121.43007812 34.66015625 121.01171875 C33.95318604 120.63466797 33.24621582 120.25761719 32.51782227 119.86914062 C31.00543224 118.96921011 31.00543224 118.96921011 29.84375 119.04296875 Z M69.1484375 121.01171875 C68.43300781 121.41777344 67.71757812 121.82382813 66.98046875 122.2421875 C66.23410156 122.67144531 65.48773438 123.10070312 64.71875 123.54296875 C63.96464844 123.97222656 63.21054688 124.40148437 62.43359375 124.84375 C60.56813952 125.90635051 58.70566125 126.97417232 56.84375 128.04296875 C56.84375 133.98296875 56.84375 139.92296875 56.84375 146.04296875 C61.51611901 146.04296875 63.48653826 144.85655692 67.53125 142.60546875 C68.12486328 142.27998047 68.71847656 141.95449219 69.33007812 141.61914062 C72.26768215 140.08546033 72.26768215 140.08546033 74.84375 138.04296875 C74.93026611 136.62726752 74.95079904 135.20737375 74.94140625 133.7890625 C74.93657227 132.50805664 74.93657227 132.50805664 74.93164062 131.20117188 C74.92326172 130.30333984 74.91488281 129.40550781 74.90625 128.48046875 C74.90173828 127.57876953 74.89722656 126.67707031 74.89257812 125.74804688 C74.88075225 123.51295561 74.8642722 121.27799438 74.84375 119.04296875 C72.36703855 119.04296875 71.29241316 119.7865898 69.1484375 121.01171875 Z " fill="#3060C0" transform="translate(87.15625,6.95703125)"/>
<path d="M0 0 C1.32 0 2.64 0 4 0 C3.40425532 5.36170213 3.40425532 5.36170213 1.8125 7.875 C0 9 0 9 -2.765625 8.9140625 C-6.38455194 9.01021756 -8.36392795 9.86203992 -11.5625 11.5 C-15.28516585 13.40093575 -17.80055592 14.30375726 -22 14 C-21.67 14.66 -21.34 15.32 -21 16 C-20.39878436 21.2906976 -21.78726637 23.84234471 -25 28 C-27 30 -27 30 -30 30.25 C-33 30 -33 30 -35 28 C-35.87278382 22.33257262 -35.02341105 17.91304295 -32 13 C-31.34 13.33 -30.68 13.66 -30 14 C-30.33 14.721875 -30.66 15.44375 -31 16.1875 C-32.00603529 19.01697427 -32.16977402 21.02895466 -32 24 C-29.12586875 24.33397787 -29.12586875 24.33397787 -26 24 C-24.08743288 22.11922127 -24.08743288 22.11922127 -23 20 C-23.99 19.67 -24.98 19.34 -26 19 C-24.82191948 15.6470016 -23.80593388 13.2447471 -21 11 C-20.01 10.67 -19.02 10.34 -18 10 C-17.67 9.01 -17.34 8.02 -17 7 C-16.278125 7.185625 -15.55625 7.37125 -14.8125 7.5625 C-11.87173027 8.01995307 -9.85896942 7.73516357 -7 7 C-7 6.34 -7 5.68 -7 5 C-5.68 5 -4.36 5 -3 5 C-2.690625 4.360625 -2.38125 3.72125 -2.0625 3.0625 C-1 1 -1 1 0 0 Z " fill="#2756AE" transform="translate(177,182)"/>
<path d="M0 0 C0.66 0.33 1.32 0.66 2 1 C-0.82065301 5.38914698 -3.87444683 9.4008749 -7.25 13.375 C-7.70890625 13.92027344 -8.1678125 14.46554688 -8.640625 15.02734375 C-9.75769246 16.35386136 -10.87845702 17.67726419 -12 19 C-10.15791321 19.66823502 -10.15791321 19.66823502 -8 20 C-3.62845219 17.76353784 -3.62845219 17.76353784 -1.125 13.75 C-1.08375 13.1725 -1.0425 12.595 -1 12 C-0.34 12 0.32 12 1 12 C0.73610801 15.8704158 0.49556303 17.53051923 -2.375 20.25 C-8 24 -8 24 -11 24 C-11.0825 24.78375 -11.165 25.5675 -11.25 26.375 C-12 29 -12 29 -14.0625 30.3125 C-14.701875 30.539375 -15.34125 30.76625 -16 31 C-17.51171875 29.8984375 -17.51171875 29.8984375 -19 28 C-19.14453125 25.0390625 -19.14453125 25.0390625 -18.8125 21.625 C-18.71582031 20.50351563 -18.61914062 19.38203125 -18.51953125 18.2265625 C-18.0327379 15.20331961 -17.26331437 12.77617232 -16 10 C-15.67 10 -15.34 10 -15 10 C-15 12.64 -15 15.28 -15 18 C-13.70376621 16.42040347 -12.41318673 14.83616587 -11.125 13.25 C-10.40570313 12.36828125 -9.68640625 11.4865625 -8.9453125 10.578125 C-6.99521224 8.15607347 -6.99521224 8.15607347 -5.90625 5.8125 C-4.56096653 3.12193307 -2.38490341 1.75729725 0 0 Z M-16 22 C-15.67 23.32 -15.34 24.64 -15 26 C-14.01 25.01 -13.02 24.02 -12 23 C-13.32 22.67 -14.64 22.34 -16 22 Z " fill="#2155B7" transform="translate(210,175)"/>
<path d="M0 0 C0.33 0 0.66 0 1 0 C0.52173913 7.17391304 0.52173913 7.17391304 -1.5 10.375 C-4.58674276 12.3813828 -7.37223803 12.92106201 -10.9765625 13.5078125 C-13.21263083 13.86599954 -13.21263083 13.86599954 -15 16 C-16.175625 16.33 -17.35125 16.66 -18.5625 17 C-23.78636989 18.81119576 -26.59846029 22.64236743 -30.01953125 26.8203125 C-32 29 -32 29 -35 30 C-35.33 29.34 -35.66 28.68 -36 28 C-35.48050781 27.57589844 -34.96101563 27.15179688 -34.42578125 26.71484375 C-30.98375854 23.81998177 -28.013886 21.29160886 -25.75 17.375 C-22.91596428 13.0216874 -18.58221367 11.88286098 -13.83984375 10.23828125 C-10.81533432 8.91947865 -9.16002636 7.46046168 -7 5 C-4 6 -4 6 -3 8 C-2.01 5.36 -1.02 2.72 0 0 Z M-8 8 C-8.33 8.66 -8.66 9.32 -9 10 C-8.01 9.67 -7.02 9.34 -6 9 C-6.66 8.67 -7.32 8.34 -8 8 Z " fill="#2253B0" transform="translate(107,182)"/>
<path d="M0 0 C-1.0975223 2.99324263 -1.67682892 3.84610901 -4.625 5.25 C-5.800625 5.62125 -5.800625 5.62125 -7 6 C-6.93039063 6.56847656 -6.86078125 7.13695312 -6.7890625 7.72265625 C-6.46392082 12.35979597 -6.69002136 15.33263131 -9.625 19.0625 C-12.00861195 21.50259565 -12.76472818 21.95927988 -16.25 22.5625 C-19 22 -19 22 -21 20 C-21.87278382 14.33257262 -21.02341105 9.91304295 -18 5 C-17.34 5.33 -16.68 5.66 -16 6 C-16.33 6.9075 -16.66 7.815 -17 8.75 C-18.19605723 12.07045807 -18.19605723 12.07045807 -18 16 C-15.12586875 16.33397787 -15.12586875 16.33397787 -12 16 C-10.08743288 14.11922127 -10.08743288 14.11922127 -9 12 C-9.66 12 -10.32 12 -11 12 C-11.33 11.01 -11.66 10.02 -12 9 C-9.4363566 4.07780468 -5.96654248 0 0 0 Z " fill="#3057AB" transform="translate(24,190)"/>
<path d="M0 0 C0.33 0.99 0.66 1.98 1 3 C0.34 3.66 -0.32 4.32 -1 5 C-1.46201511 6.59169841 -1.87254921 8.19865592 -2.25 9.8125 C-3.76281674 15.06554707 -5.27696762 17.22174566 -10 20 C-13.25 20.4375 -13.25 20.4375 -16 20 C-18 18 -18 18 -18.25 14.125 C-18.18064077 10.94603525 -17.80254921 8.70382382 -16 6 C-15.02391783 8.92824652 -14.91773332 10.95613276 -15 14 C-12.760165 14.95020416 -12.760165 14.95020416 -10 15 C-7.16657021 13.00371992 -5.28304786 11.46848591 -4.60546875 7.953125 C-4.52232422 6.89351562 -4.52232422 6.89351562 -4.4375 5.8125 C-4.2209375 3.9253125 -4.2209375 3.9253125 -4 2 C-1.9375 0.5 -1.9375 0.5 0 0 Z " fill="#2958B3" transform="translate(58,192)"/>
<path d="M0 0 C0.33 0 0.66 0 1 0 C1.33 1.65 1.66 3.3 2 5 C2.99 5.33 3.98 5.66 5 6 C3.69386058 9.91841827 2.16870152 12.32640809 -1 15 C-1.66 15 -2.32 15 -3 15 C-3.226875 15.78375 -3.45375 16.5675 -3.6875 17.375 C-5 20 -5 20 -7.625 21.3125 C-8.40875 21.539375 -9.1925 21.76625 -10 22 C-9 19 -9 19 -6 17 C-6.66 16.01 -7.32 15.02 -8 14 C-6.625 12 -6.625 12 -5 10 C-4.34 10 -3.68 10 -3 10 C-2.86722656 9.36191406 -2.73445313 8.72382813 -2.59765625 8.06640625 C-2.42105469 7.24011719 -2.24445312 6.41382813 -2.0625 5.5625 C-1.88847656 4.73878906 -1.71445312 3.91507813 -1.53515625 3.06640625 C-1 1 -1 1 0 0 Z " fill="#204CA6" transform="translate(34,184)"/>
<path d="M0 0 C1.32 0 2.64 0 4 0 C3.40425532 5.36170213 3.40425532 5.36170213 1.8125 7.875 C-0.79553152 9.49377819 -2.95537655 9.05855045 -6 9 C-8.39333489 9.53345416 -10.66045904 10.25134689 -13 11 C-13.33 10.01 -13.66 9.02 -14 8 C-15.32 8.33 -16.64 8.66 -18 9 C-17.67 8.34 -17.34 7.68 -17 7 C-16.278125 7.185625 -15.55625 7.37125 -14.8125 7.5625 C-11.87173027 8.01995307 -9.85896942 7.73516357 -7 7 C-7 6.34 -7 5.68 -7 5 C-5.68 5 -4.36 5 -3 5 C-2.690625 4.360625 -2.38125 3.72125 -2.0625 3.0625 C-1 1 -1 1 0 0 Z " fill="#1849A8" transform="translate(177,182)"/>
<path d="M0 0 C0.33 0 0.66 0 1 0 C1.58310464 12.13721513 1.58310464 12.13721513 -2 17 C-4.0625 17.9375 -4.0625 17.9375 -6 18 C-6.66 17.67 -7.32 17.34 -8 17 C-10.00800456 17.28112064 -12.01014051 17.61067967 -14 18 C-13.06725891 16.87105124 -12.12859878 15.74699124 -11.1875 14.625 C-10.66542969 13.99851563 -10.14335938 13.37203125 -9.60546875 12.7265625 C-8 11 -8 11 -5 9 C-5 10.32 -5 11.64 -5 13 C-1.83558965 11.3874209 -1.83558965 11.3874209 -1.5234375 8.90625 C-1.47445312 8.1121875 -1.42546875 7.318125 -1.375 6.5 C-1.07894737 2.15789474 -1.07894737 2.15789474 0 0 Z " fill="#2052AF" transform="translate(71,188)"/>
<path d="M0 0 C2.64 0.33 5.28 0.66 8 1 C7.00769103 2.67125722 6.00509214 4.33639922 5 6 C4.62488281 6.67417969 4.24976563 7.34835938 3.86328125 8.04296875 C0.61211397 13.67353922 0.61211397 13.67353922 -2.8125 15.5 C-3.534375 15.665 -4.25625 15.83 -5 16 C-4.67 15.38125 -4.34 14.7625 -4 14.125 C-2.85806765 12.08981656 -2.85806765 12.08981656 -3 10 C-2.42185266 6.43475809 -1.4218124 3.31756226 0 0 Z M0 3 C0.33 3.66 0.66 4.32 1 5 C1.99 4.67 2.98 4.34 4 4 C2.68 3.67 1.36 3.34 0 3 Z " fill="#1D52B3" transform="translate(133,190)"/>
<path d="M0 0 C2.97 0.495 2.97 0.495 6 1 C3.89982784 4.97927357 1.86214138 7.63004961 -2 10 C-5.8125 10.25 -5.8125 10.25 -9 10 C-5.375 5.125 -5.375 5.125 -2 4 C-0.79117904 1.99983534 -0.79117904 1.99983534 0 0 Z " fill="#1F51B3" transform="translate(118,196)"/>
<path d="M0 0 C0.33 0 0.66 0 1 0 C1 5.28 1 10.56 1 16 C1.99 16.33 2.98 16.66 4 17 C3.67 17.99 3.34 18.98 3 20 C2.01 20.33 1.02 20.66 0 21 C-1.51171875 19.8984375 -1.51171875 19.8984375 -3 18 C-3.14453125 15.0390625 -3.14453125 15.0390625 -2.8125 11.625 C-2.71582031 10.50351563 -2.61914062 9.38203125 -2.51953125 8.2265625 C-2.0327379 5.20331961 -1.26331437 2.77617232 0 0 Z " fill="#295DC1" transform="translate(194,185)"/>
<path d="M0 0 C0.66 0.33 1.32 0.66 2 1 C1.67 1.86625 1.34 2.7325 1 3.625 C0.01268659 6.95718275 -0.16420974 9.55159538 0 13 C1.65 13 3.3 13 5 13 C5 14.32 5 15.64 5 17 C2.125 17.125 2.125 17.125 -1 17 C-3.38370909 14.61629091 -3.29588602 14.0063401 -3.3125 10.75 C-3.23737929 6.5227526 -2.23998949 3.63998292 0 0 Z " fill="#3463BE" transform="translate(6,195)"/>
<path d="M0 0 C2 1 2 1 3 3 C1.85677009 4.14322991 0.71289785 5.28582237 -0.43359375 6.42578125 C-1.56106195 7.55887273 -2.67690909 8.70357072 -3.78515625 9.85546875 C-4.39230469 10.48066406 -4.99945313 11.10585937 -5.625 11.75 C-6.19476563 12.34296875 -6.76453125 12.9359375 -7.3515625 13.546875 C-9 15 -9 15 -12 16 C-12.33 15.34 -12.66 14.68 -13 14 C-12.48050781 13.57589844 -11.96101563 13.15179688 -11.42578125 12.71484375 C-6.80565028 8.82915135 -3.30081313 5.05437011 0 0 Z " fill="#1949A5" transform="translate(84,196)"/>
<path d="M0 0 C2.5722047 1.28610235 3.00974907 2.33393981 4 5 C3.625 7.25 3.625 7.25 3 9 C1.02 9.33 -0.96 9.66 -3 10 C-2.25 2.25 -2.25 2.25 0 0 Z " fill="#2A59B4" transform="translate(199,172)"/>
<path d="M0 0 C0.66 0.33 1.32 0.66 2 1 C-1.19826985 6.11723176 -4.95834187 10.52692892 -9 15 C-9.66 14.34 -10.32 13.68 -11 13 C-10.071875 11.88625 -10.071875 11.88625 -9.125 10.75 C-7.00880605 8.22852309 -7.00880605 8.22852309 -6.0625 5.9375 C-4.58179477 3.23739046 -2.45144545 1.80632822 0 0 Z " fill="#1B4A9E" transform="translate(210,175)"/>
<path d="M0 0 C2.97 0.495 2.97 0.495 6 1 C5.67 1.99 5.34 2.98 5 4 C4.34 4 3.68 4 3 4 C2.773125 4.78375 2.54625 5.5675 2.3125 6.375 C1 9 1 9 -1.625 10.3125 C-2.40875 10.539375 -3.1925 10.76625 -4 11 C-3 8 -3 8 0 6 C-0.66 5.01 -1.32 4.02 -2 3 C-1.34 2.01 -0.68 1.02 0 0 Z " fill="#2656B7" transform="translate(28,195)"/>
<path d="M0 0 C0.33 0.66 0.66 1.32 1 2 C1.66 2.33 2.32 2.66 3 3 C1.35 3 -0.3 3 -2 3 C-2.226875 3.639375 -2.45375 4.27875 -2.6875 4.9375 C-4 7 -4 7 -6.5 7.875 C-7.7375 7.936875 -7.7375 7.936875 -9 8 C-9.66 7.34 -10.32 6.68 -11 6 C-8.7991151 3.52140092 -6.93627031 2.38789634 -3.8125 1.3125 C-3.09707031 1.06113281 -2.38164063 0.80976563 -1.64453125 0.55078125 C-1.10183594 0.36902344 -0.55914062 0.18726563 0 0 Z " fill="#2A5CC2" transform="translate(96,191)"/>
<path d="M0 0 C0.33 0.99 0.66 1.98 1 3 C0.34 3.66 -0.32 4.32 -1 5 C-1.85541401 7.57051911 -2.52736924 10.16617586 -3.21875 12.78515625 C-4 15 -4 15 -6 16 C-6.66 15.34 -7.32 14.68 -8 14 C-7.525625 13.505 -7.05125 13.01 -6.5625 12.5 C-4.94374047 9.90998475 -4.77698018 8.8241025 -4.5625 5.875 C-4.376875 4.59625 -4.19125 3.3175 -4 2 C-1.9375 0.5 -1.9375 0.5 0 0 Z " fill="#0E4AAF" transform="translate(58,192)"/>
<path d="M0 0 C0.33 0 0.66 0 1 0 C2.15316726 6.34241995 2.09507063 12.56688704 2 19 C3.32 18.67 4.64 18.34 6 18 C5.01 18.99 4.02 19.98 3 21 C2.01 20.67 1.02 20.34 0 20 C0 13.4 0 6.8 0 0 Z " fill="#2056B9" transform="translate(88,135)"/>
<path d="M0 0 C1.32 0.33 2.64 0.66 4 1 C3.38461538 6.53846154 3.38461538 6.53846154 1.4375 8.875 C0.7259375 9.431875 0.7259375 9.431875 0 10 C-0.66 9.67 -1.32 9.34 -2 9 C-1.125 2.25 -1.125 2.25 0 0 Z M0 5 C1 7 1 7 1 7 Z " fill="#2253B1" transform="translate(185,196)"/>
<path d="M0 0 C0.99 0.33 1.98 0.66 3 1 C3.48951049 7.36363636 3.48951049 7.36363636 1.125 10.4375 C-1 12 -1 12 -3 12 C-2.649375 11.443125 -2.29875 10.88625 -1.9375 10.3125 C-0.77363473 7.44163233 -1.38964894 5.97546142 -2 3 C-1.34 2.01 -0.68 1.02 0 0 Z " fill="#2B59B2" transform="translate(219,194)"/>
<path d="M0 0 C2.64 0.33 5.28 0.66 8 1 C6.19587357 4.26460973 5.16605307 5.88929795 2 8 C0.4375 6.8125 0.4375 6.8125 -1 5 C-0.6875 2.3125 -0.6875 2.3125 0 0 Z M0 3 C0.33 3.66 0.66 4.32 1 5 C1.99 4.67 2.98 4.34 4 4 C2.68 3.67 1.36 3.34 0 3 Z " fill="#174AAA" transform="translate(133,190)"/>
<path d="M0 0 C1.32 0 2.64 0 4 0 C3.38461538 5.53846154 3.38461538 5.53846154 1.4375 7.875 C0.7259375 8.431875 0.7259375 8.431875 0 9 C-1.98 8.34 -3.96 7.68 -6 7 C-6 6.67 -6 6.34 -6 6 C-4.02 6 -2.04 6 0 6 C0 5.34 0 4.68 0 4 C0.66 4 1.32 4 2 4 C2 3.34 2 2.68 2 2 C1.34 2 0.68 2 0 2 C0 1.34 0 0.68 0 0 Z " fill="#2558BA" transform="translate(177,182)"/>
<path d="M0 0 C0.33 0 0.66 0 1 0 C1.05429959 1.74965358 1.09292823 3.49979787 1.125 5.25 C1.14820312 6.22453125 1.17140625 7.1990625 1.1953125 8.203125 C0.99862781 11.0196498 0.44568916 12.60949036 -1 15 C-1.33 15 -1.66 15 -2 15 C-2.19392201 9.47322267 -1.7479503 5.24385089 0 0 Z " fill="#2054B2" transform="translate(76,190)"/>
<path d="M0 0 C0.33 0 0.66 0 1 0 C1.05437607 1.58294782 1.09296271 3.16644256 1.125 4.75 C1.14820313 5.63171875 1.17140625 6.5134375 1.1953125 7.421875 C0.99139502 10.1135858 0.36551721 11.69904974 -1 14 C-1.33 14 -1.66 14 -2 14 C-2.3690205 4.58997722 -2.3690205 4.58997722 0 0 Z " fill="#164CB1" transform="translate(214,186)"/>
<path d="M0 0 C-0.33 1.32 -0.66 2.64 -1 4 C-2.65 4.33 -4.3 4.66 -6 5 C-6.33 3.68 -6.66 2.36 -7 1 C-3.375 -1.125 -3.375 -1.125 0 0 Z " fill="#2456B2" transform="translate(87,215)"/>
<path d="M0 0 C-0.33 1.32 -0.66 2.64 -1 4 C-2.65 4.33 -4.3 4.66 -6 5 C-6.33 3.68 -6.66 2.36 -7 1 C-3.375 -1.125 -3.375 -1.125 0 0 Z " fill="#2252AC" transform="translate(59,215)"/>
<path d="M0 0 C2 2 2 2 2.08203125 4.3125 C1.99308594 5.199375 1.90414062 6.08625 1.8125 7 C1.73644531 7.886875 1.66039062 8.77375 1.58203125 9.6875 C1 12 1 12 -2 14 C-1.85970581 11.8537974 -1.71261836 9.70803782 -1.5625 7.5625 C-1.48128906 6.36753906 -1.40007812 5.17257813 -1.31640625 3.94140625 C-1 1 -1 1 0 0 Z " fill="#2150A6" transform="translate(127,185)"/>
<path d="M0 0 C-0.33 1.32 -0.66 2.64 -1 4 C-2.65 4.33 -4.3 4.66 -6 5 C-6.33 3.68 -6.66 2.36 -7 1 C-3.375 -1.125 -3.375 -1.125 0 0 Z " fill="#2052B5" transform="translate(157,182)"/>
<path d="M0 0 C-0.6875 1.875 -0.6875 1.875 -2 4 C-4.5 5.125 -4.5 5.125 -7 6 C-7.66 6.66 -8.32 7.32 -9 8 C-9 6.68 -9 5.36 -9 4 C-2.25 0 -2.25 0 0 0 Z " fill="#17459E" transform="translate(24,190)"/>
<path d="M0 0 C0.99 0.33 1.98 0.66 3 1 C3 2.32 3 3.64 3 5 C1.68 4.67 0.36 4.34 -1 4 C-1 4.66 -1 5.32 -1 6 C-1.66 6 -2.32 6 -3 6 C-2.42655063 3.13275314 -2.1385485 2.1385485 0 0 Z " fill="#3458A3" transform="translate(100,187)"/>
<path d="M0 0 C1 3 1 3 -0.4375 6.1875 C-1.2109375 7.5796875 -1.2109375 7.5796875 -2 9 C-2.99 8.34 -3.98 7.68 -5 7 C-3.35 4.69 -1.7 2.38 0 0 Z " fill="#264E9F" transform="translate(55,199)"/>
<path d="M0 0 C0.66 0.33 1.32 0.66 2 1 C1.01 4.3 0.02 7.6 -1 11 C-1.66 10.01 -2.32 9.02 -3 8 C-2.24451463 5.1524013 -1.31613642 2.63227284 0 0 Z " fill="#324E96" transform="translate(6,195)"/>
<path d="M0 0 C0.99 0.33 1.98 0.66 3 1 C2.67 2.65 2.34 4.3 2 6 C1.01 5.67 0.02 5.34 -1 5 C-0.67 3.35 -0.34 1.7 0 0 Z " fill="#2F61B9" transform="translate(47,197)"/>
<path d="M0 0 C1.98 0.495 1.98 0.495 4 1 C4 2.32 4 3.64 4 5 C2.68 5 1.36 5 0 5 C-0.33 4.01 -0.66 3.02 -1 2 C-0.67 1.34 -0.34 0.68 0 0 Z " fill="#1C53B6" transform="translate(13,197)"/>
<path d="M0 0 C2 1 2 1 3 3 C0.69 4.32 -1.62 5.64 -4 7 C-2.92598892 4.08482708 -2.22189824 2.22189824 0 0 Z " fill="#1A51B2" transform="translate(84,196)"/>
<path d="M0 0 C0.33 0 0.66 0 1 0 C1.36923077 5.41538462 1.36923077 5.41538462 -0.5 8.375 C-0.995 8.91125 -1.49 9.4475 -2 10 C-1.85950482 8.52031676 -1.71245174 7.04125484 -1.5625 5.5625 C-1.48128906 4.73878906 -1.40007812 3.91507813 -1.31640625 3.06640625 C-1 1 -1 1 0 0 Z " fill="#1749A3" transform="translate(194,185)"/>
<path d="M0 0 C0.33 0 0.66 0 1 0 C0.67 2.64 0.34 5.28 0 8 C-0.99 8 -1.98 8 -3 8 C-2.01 5.36 -1.02 2.72 0 0 Z " fill="#1E4DA2" transform="translate(107,182)"/>
<path d="M0 0 C0.33 0 0.66 0 1 0 C1.04898438 0.77085937 1.09796875 1.54171875 1.1484375 2.3359375 C1.22320312 3.33882812 1.29796875 4.34171875 1.375 5.375 C1.44460937 6.37273437 1.51421875 7.37046875 1.5859375 8.3984375 C1.76363964 11.15508879 1.76363964 11.15508879 4 13 C3.01 13.33 2.02 13.66 1 14 C0 13 0 13 -0.09765625 10.05859375 C-0.08605469 8.86363281 -0.07445312 7.66867188 -0.0625 6.4375 C-0.05347656 5.23996094 -0.04445312 4.04242188 -0.03515625 2.80859375 C-0.02355469 1.88175781 -0.01195312 0.95492187 0 0 Z " fill="#12469C" transform="translate(143,142)"/>
<path d="M0 0 C0.33 0.66 0.66 1.32 1 2 C2.65 2 4.3 2 6 2 C6 2.99 6 3.98 6 5 C3.03 4.505 3.03 4.505 0 4 C0 2.68 0 1.36 0 0 Z " fill="#2D63CC" transform="translate(143,206)"/>
<path d="M0 0 C0.66 0.33 1.32 0.66 2 1 C1.67 1.99 1.34 2.98 1 4 C-0.98 4.33 -2.96 4.66 -5 5 C-3.35 3.35 -1.7 1.7 0 0 Z " fill="#1B4AAB" transform="translate(62,201)"/>
<path d="M0 0 C0.66 0 1.32 0 2 0 C1.6875 2.875 1.6875 2.875 1 6 C0.01 6.66 -0.98 7.32 -2 8 C-2.66 7.34 -3.32 6.68 -4 6 C-3.01 5.34 -2.02 4.68 -1 4 C-0.27617533 1.94074861 -0.27617533 1.94074861 0 0 Z " fill="#0D47AA" transform="translate(209,187)"/>
<path d="M0 0 C1.32 0.33 2.64 0.66 4 1 C3.67 2.32 3.34 3.64 3 5 C2.01 5 1.02 5 0 5 C0 3.35 0 1.7 0 0 Z " fill="#2C5EB7" transform="translate(164,175)"/>
<path d="M0 0 C0.99 0 1.98 0 3 0 C2.67 1.65 2.34 3.3 2 5 C1.01 4.67 0.02 4.34 -1 4 C-0.67 2.68 -0.34 1.36 0 0 Z " fill="#1C52B1" transform="translate(115,215)"/>
<path d="M0 0 C0.99 0.33 1.98 0.66 3 1 C2.67 2.32 2.34 3.64 2 5 C1.01 4.67 0.02 4.34 -1 4 C-0.67 2.68 -0.34 1.36 0 0 Z " fill="#1E4EAA" transform="translate(136,176)"/>
<path d="M0 0 C0.99 0.33 1.98 0.66 3 1 C2.67 2.32 2.34 3.64 2 5 C1.01 4.67 0.02 4.34 -1 4 C-0.67 2.68 -0.34 1.36 0 0 Z " fill="#2350B1" transform="translate(106,171)"/>
<path d="M0 0 C0.99 0.33 1.98 0.66 3 1 C2.67 2.32 2.34 3.64 2 5 C1.01 4.67 0.02 4.34 -1 4 C-0.67 2.68 -0.34 1.36 0 0 Z " fill="#1C4BA8" transform="translate(208,169)"/>
</svg>
