<?xml version="1.0" encoding="UTF-8"?>
<svg version="1.1" xmlns="http://www.w3.org/2000/svg" width="160" height="160">
<path d="M0 0 C14.3343308 11.08567237 24.31909009 25.6429304 27.5703125 43.625 C30.11939364 63.64687365 23.92131596 86.47783074 11.74267578 102.671875 C0.51358733 116.69516914 -15.17639458 126.72312584 -33.09765625 129.71484375 C-53.72123562 131.74111736 -72.53780999 127.98175509 -89.3125 115.1875 C-101.94582268 104.39739981 -109.96634655 92.15630011 -114 76 C-114.19207031 75.25363281 -114.38414063 74.50726563 -114.58203125 73.73828125 C-117.61395651 53.87492041 -113.50666226 35.51419663 -101.93359375 19.0625 C-89.16768237 2.61982344 -72.63541692 -5.00339548 -53 -10 C-52.21625 -10.20238281 -51.4325 -10.40476562 -50.625 -10.61328125 C-32.47205952 -13.28759837 -15.36563988 -10.24375992 0 0 Z M-82 17 C-93.37045452 30.69762116 -96.4763616 45.59000577 -95 63 C-92.27959765 77.79218777 -84.29544757 90.84653301 -72.1875 99.75 C-57.49208205 109.47922448 -41.4953642 112.43858737 -24.1953125 109.3125 C-5.70826527 103.99248641 5.70615741 93.12891666 14.875 76.625 C19.47275462 65.8969059 17.9417343 50.69495651 14 40 C7.47606263 23.69944993 -3.46150305 12.07500068 -19.25 4.25 C-42.91783629 -5.86474527 -64.69304509 -1.64070189 -82 17 Z M-103 38 C-103.483059 39.39449109 -103.96125517 40.79066707 -104.4375 42.1875 C-104.70433594 42.96480469 -104.97117187 43.74210937 -105.24609375 44.54296875 C-109.85771423 59.57255051 -107.25406881 75.92486991 -100.3125 89.75 C-96.94235697 95.52253717 -92.70766918 100.28425592 -88 105 C-87.36191406 105.6496875 -86.72382812 106.299375 -86.06640625 106.96875 C-75.1977342 117.27252226 -59.76318366 121.9955632 -45 122.5 C-37.05182331 122.2797272 -29.59054155 120.20815754 -22 118 C-25.70821284 116.73646081 -28.83273468 117.19993399 -32.6875 117.625 C-52.12714493 119.28404205 -68.66870319 112.36949959 -83.40625 99.9765625 C-95.03537692 89.26342845 -101.95213411 73.71798837 -103 58 C-103.27524448 51.28153255 -102.69916026 44.67947753 -102 38 C-102.33 38 -102.66 38 -103 38 Z " fill="#F4D64C" transform="translate(124,21)"/>
<path d="M0 0 C-0.58265625 0.23332031 -1.1653125 0.46664063 -1.765625 0.70703125 C-14.77036241 6.49373045 -24.71895957 16.92773617 -30.2734375 29.99609375 C-35.63928484 44.32404783 -36.1404809 59.76092819 -30 74 C-23.2863138 88.64628373 -13.43952421 97.3741837 1.1640625 103.95703125 C16.55608484 109.61773368 33.11531368 108.37754214 47.91796875 101.6796875 C58.12163165 96.52859699 64.90475952 90.01677777 70.58984375 80.125 C71.05519531 79.42375 71.52054687 78.7225 72 78 C72.66 78 73.32 78 74 78 C70.30102649 92.54929581 60.23370424 103.63751379 47.6875 111.4375 C44.78525936 113.15267281 42.30399951 114.34543406 39 115 C38.10667969 115.18820313 37.21335937 115.37640625 36.29296875 115.5703125 C18.48897111 118.75039761 0.28516095 116.01680615 -15 106 C-19.35201746 102.6932708 -23.18556496 98.90219045 -27 95 C-27.59296875 94.43925781 -28.1859375 93.87851563 -28.796875 93.30078125 C-39.42252397 82.41806013 -43.81229379 65.98307312 -44.3125 51.1875 C-44.12352308 46.0552846 -43.04982988 41.01481235 -42 36 C-41.34 36 -40.68 36 -40 36 C-39.773125 34.700625 -39.54625 33.40125 -39.3125 32.0625 C-36.82621946 21.25479071 -30.48745811 13.88968305 -21.25488281 7.86035156 C-5.30358824 -1.96429194 -5.30358824 -1.96429194 0 0 Z " fill="#080705" transform="translate(64,23)"/>
<path d="M0 0 C-0.97839844 0.37511719 -1.95679688 0.75023437 -2.96484375 1.13671875 C-23.07545431 8.94052957 -37.92984577 19.12572724 -47.45703125 39.2265625 C-55.4465351 57.9521154 -53.60176467 75.92964461 -48 95 C-45.525 94.505 -45.525 94.505 -43 94 C-43 93.34 -43 92.68 -43 92 C-42.34 92 -41.68 92 -41 92 C-39.93813004 93.75570545 -38.95224167 95.55750028 -38 97.375 C-29.75893983 111.78837685 -16.84634356 120.83345814 -0.97265625 125.30859375 C15.38510396 129.11322392 32.68252257 127.06174983 47.37109375 118.640625 C56.0154072 112.82327984 62.38668601 107.03094865 68.03125 98.26733398 C68.97600589 96.81472932 69.9830707 95.40302487 71 94 C71.66 94 72.32 94 73 94 C73.33 93.01 73.66 92.02 74 91 C75.32 92.32 76.64 93.64 78 95 C78.19335938 94.30132812 78.38671875 93.60265625 78.5859375 92.8828125 C78.84632813 91.97273438 79.10671875 91.06265625 79.375 90.125 C79.63023437 89.22007813 79.88546875 88.31515625 80.1484375 87.3828125 C81 85 81 85 83 83 C80.85903219 98.25439567 71.18152703 111.88874608 59.30224609 121.35253906 C43.04058075 133.40059968 23.87006559 138.39483192 3.84667969 135.71142578 C-15.15504963 132.3773965 -31.15661014 122.16746396 -43 107 C-48.42735055 99.18075386 -51.69992717 91.21265731 -54 82 C-54.19207031 81.25363281 -54.38414063 80.50726563 -54.58203125 79.73828125 C-57.61395651 59.87492041 -53.50666226 41.51419663 -41.93359375 25.0625 C-34.73412148 15.78947668 -13.66993264 -5.2576664 0 0 Z " fill="#F7DB5B" transform="translate(64,15)"/>
<path d="M0 0 C14.42817244 11.9408538 23.97417227 26.95848081 26.36474609 45.73535156 C27.0663135 54.78783424 26.24555884 64.09291334 23.36474609 72.73535156 C22.70474609 72.73535156 22.04474609 72.73535156 21.36474609 72.73535156 C21.38569336 72.05134277 21.40664062 71.36733398 21.42822266 70.66259766 C22.0024456 49.04928203 20.22270883 31.08900986 4.98974609 14.36035156 C-6.9256714 1.82886315 -23.16186905 -7.73108344 -40.89379883 -8.3425293 C-43.43339948 -8.36275024 -45.97070506 -8.35200848 -48.51025391 -8.32714844 C-49.38939453 -8.32263672 -50.26853516 -8.318125 -51.17431641 -8.31347656 C-53.32799194 -8.3017718 -55.48163207 -8.28383913 -57.63525391 -8.26464844 C-45.0117362 -21.69301375 -11.6753029 -9.02927277 0 0 Z " fill="#1F1D18" transform="translate(125.63525390625,22.2646484375)"/>
<path d="M0 0 C1.65 0 3.3 0 5 0 C5.02708567 1.60407328 5.04643483 3.2082785 5.0625 4.8125 C5.07410156 5.70582031 5.08570313 6.59914063 5.09765625 7.51953125 C5 10 5 10 4 13 C3.01 13 2.02 13 1 13 C0.34 15.64 -0.32 18.28 -1 21 C-1.66 20.67 -2.32 20.34 -3 20 C-2.67 19.01 -2.34 18.02 -2 17 C-3.32 16.34 -4.64 15.68 -6 15 C-5.39644592 11.14974121 -4.23227397 8.13898841 -2.4375 4.6875 C-1.98246094 3.80449219 -1.52742188 2.92148437 -1.05859375 2.01171875 C-0.53458984 1.01591797 -0.53458984 1.01591797 0 0 Z " fill="#F0D148" transform="translate(20,46)"/>
<path d="M0 0 C0 0.66 0 1.32 0 2 C-0.66 2 -1.32 2 -2 2 C-2 2.66 -2 3.32 -2 4 C-2.59425781 3.80664062 -3.18851563 3.61328125 -3.80078125 3.4140625 C-15.15105784 -0.15165425 -26.17570236 -1.39362576 -38 -2 C-38 -2.33 -38 -2.66 -38 -3 C-25.233059 -5.37524484 -12.28843939 -4.09614646 0 0 Z " fill="#110E07" transform="translate(110,15)"/>
<path d="M0 0 C6.91617279 5.96847564 9.12906775 17.27841083 10 26 C10.56925828 35.09602052 9.89585235 44.31244294 7 53 C6.34 53 5.68 53 5 53 C5 51.35 5 49.7 5 48 C5.66 48 6.32 48 7 48 C7.86600643 25.73768514 7.86600643 25.73768514 1.36328125 4.73046875 C0 2 0 2 0 0 Z " fill="#494949" transform="translate(142,42)"/>
<path d="M0 0 C-3.52631782 3.32585531 -7.1738114 3.72063291 -11.8125 4.1875 C-12.84213867 4.3102832 -12.84213867 4.3102832 -13.89257812 4.43554688 C-18.2696705 4.92833211 -22.59296733 5.2488287 -27 5 C-27.66 4.34 -28.32 3.68 -29 3 C-28.05640625 2.96261719 -27.1128125 2.92523438 -26.140625 2.88671875 C-18.53019381 2.497028 -11.65134846 1.68825096 -4.29296875 -0.4765625 C-2 -1 -2 -1 0 0 Z " fill="#33322A" transform="translate(110,135)"/>
<path d="M0 0 C0.33 0 0.66 0 1 0 C1.31277554 8.82722077 0.81210185 17.56369446 -2 26 C-2.66 26 -3.32 26 -4 26 C-4 24.35 -4 22.7 -4 21 C-3.34 21 -2.68 21 -2 21 C-1.93941406 19.73542969 -1.87882813 18.47085938 -1.81640625 17.16796875 C-1.73199096 15.50780129 -1.64734345 13.84764563 -1.5625 12.1875 C-1.52318359 11.35412109 -1.48386719 10.52074219 -1.44335938 9.66210938 C-1.40146484 8.85966797 -1.35957031 8.05722656 -1.31640625 7.23046875 C-1.27974854 6.49207764 -1.24309082 5.75368652 -1.20532227 4.99291992 C-1 3 -1 3 0 0 Z " fill="#565347" transform="translate(151,69)"/>
<path d="M0 0 C0.66 0 1.32 0 2 0 C1.01 2.97 0.02 5.94 -1 9 C-1.66 7.68 -2.32 6.36 -3 5 C-1.75 2.25 -1.75 2.25 0 0 Z " fill="#28220D" transform="translate(136,101)"/>
</svg>
